<?xml version="1.0" encoding="UTF-8" standalone="no"?>
<!DOCTYPE svg PUBLIC "-//W3C//DTD SVG 1.1//EN"
 "http://www.w3.org/Graphics/SVG/1.1/DTD/svg11.dtd">
<!-- Generated by graphviz version 2.38.0 (20140413.2041)
 -->
<!-- Title: controllers_diagram Pages: 1 -->
<svg width="540pt" height="589pt"
 viewBox="0.00 0.00 539.51 589.00" xmlns="http://www.w3.org/2000/svg" xmlns:xlink="http://www.w3.org/1999/xlink">
<g id="graph0" class="graph" transform="scale(1 1) rotate(0) translate(237.821 351.5)">
<title>controllers_diagram</title>
<polygon fill="none" stroke="none" points="-237.821,237.5 -237.821,-351.5 301.688,-351.5 301.688,237.5 -237.821,237.5"/>
<!-- _diagram_info -->
<g id="node1" class="node"><title>_diagram_info</title>
<text text-anchor="start" x="98.3123" y="138.9" font-family="Times,serif" font-size="13.00">Controllers diagram</text>
<text text-anchor="start" x="98.3123" y="151.9" font-family="Times,serif" font-size="13.00">Date: Oct 03 2016 &#45; 16:02</text>
<text text-anchor="start" x="98.3123" y="164.9" font-family="Times,serif" font-size="13.00">Migration version: 20161003195307</text>
<text text-anchor="start" x="98.3123" y="177.9" font-family="Times,serif" font-size="13.00">Generated by RailRoady 1.4.2</text>
<text text-anchor="start" x="98.3123" y="190.9" font-family="Times,serif" font-size="13.00">http://railroady.prestonlee.com</text>
</g>
<!-- ActivitiesController -->
<g id="node2" class="node"><title>ActivitiesController</title>
<path fill="none" stroke="black" d="M102.01,89C102.01,89 205.99,89 205.99,89 211.99,89 217.99,83 217.99,77 217.99,77 217.99,-101 217.99,-101 217.99,-107 211.99,-113 205.99,-113 205.99,-113 102.01,-113 102.01,-113 96.0103,-113 90.0103,-107 90.0103,-101 90.0103,-101 90.0103,77 90.0103,77 90.0103,83 96.0103,89 102.01,89"/>
<text text-anchor="middle" x="154" y="-97.8" font-family="Times,serif" font-size="14.00">ActivitiesController</text>
<polyline fill="none" stroke="black" points="90.0103,-91 217.99,-91 "/>
<text text-anchor="start" x="98.0103" y="-75.8" font-family="Times,serif" font-size="14.00">create</text>
<text text-anchor="start" x="98.0103" y="-61.8" font-family="Times,serif" font-size="14.00">destroy</text>
<text text-anchor="start" x="98.0103" y="-47.8" font-family="Times,serif" font-size="14.00">edit</text>
<text text-anchor="start" x="98.0103" y="-33.8" font-family="Times,serif" font-size="14.00">index</text>
<text text-anchor="start" x="98.0103" y="-19.8" font-family="Times,serif" font-size="14.00">new</text>
<text text-anchor="start" x="98.0103" y="-5.8" font-family="Times,serif" font-size="14.00">show</text>
<text text-anchor="start" x="98.0103" y="8.2" font-family="Times,serif" font-size="14.00">update</text>
<polyline fill="none" stroke="black" points="90.0103,15 217.99,15 "/>
<polyline fill="none" stroke="black" points="90.0103,39 217.99,39 "/>
<text text-anchor="start" x="98.0103" y="54.2" font-family="Times,serif" font-size="14.00">_layout</text>
<text text-anchor="start" x="98.0103" y="68.2" font-family="Times,serif" font-size="14.00">activity_params</text>
<text text-anchor="start" x="98.0103" y="82.2" font-family="Times,serif" font-size="14.00">set_activity</text>
</g>
<!-- ApplicationController -->
<g id="node3" class="node"><title>ApplicationController</title>
<path fill="none" stroke="black" d="M-221.821,233C-221.821,233 -106.179,233 -106.179,233 -100.179,233 -94.1792,227 -94.1792,221 -94.1792,221 -94.1792,153 -94.1792,153 -94.1792,147 -100.179,141 -106.179,141 -106.179,141 -221.821,141 -221.821,141 -227.821,141 -233.821,147 -233.821,153 -233.821,153 -233.821,221 -233.821,221 -233.821,227 -227.821,233 -221.821,233"/>
<text text-anchor="middle" x="-164" y="156.2" font-family="Times,serif" font-size="14.00">ApplicationController</text>
<polyline fill="none" stroke="black" points="-233.821,163 -94.1792,163 "/>
<polyline fill="none" stroke="black" points="-233.821,187 -94.1792,187 "/>
<polyline fill="none" stroke="black" points="-233.821,211 -94.1792,211 "/>
<text text-anchor="start" x="-225.821" y="226.2" font-family="Times,serif" font-size="14.00">_layout</text>
</g>
<!-- ExercisesController -->
<g id="node4" class="node"><title>ExercisesController</title>
<path fill="none" stroke="black" d="M-59.5933,-127C-59.5933,-127 43.5933,-127 43.5933,-127 49.5933,-127 55.5933,-133 55.5933,-139 55.5933,-139 55.5933,-317 55.5933,-317 55.5933,-323 49.5933,-329 43.5933,-329 43.5933,-329 -59.5933,-329 -59.5933,-329 -65.5933,-329 -71.5933,-323 -71.5933,-317 -71.5933,-317 -71.5933,-139 -71.5933,-139 -71.5933,-133 -65.5933,-127 -59.5933,-127"/>
<text text-anchor="middle" x="-8" y="-313.8" font-family="Times,serif" font-size="14.00">ExercisesController</text>
<polyline fill="none" stroke="black" points="-71.5933,-307 55.5933,-307 "/>
<text text-anchor="start" x="-63.5933" y="-291.8" font-family="Times,serif" font-size="14.00">create</text>
<text text-anchor="start" x="-63.5933" y="-277.8" font-family="Times,serif" font-size="14.00">destroy</text>
<text text-anchor="start" x="-63.5933" y="-263.8" font-family="Times,serif" font-size="14.00">edit</text>
<text text-anchor="start" x="-63.5933" y="-249.8" font-family="Times,serif" font-size="14.00">index</text>
<text text-anchor="start" x="-63.5933" y="-235.8" font-family="Times,serif" font-size="14.00">new</text>
<text text-anchor="start" x="-63.5933" y="-221.8" font-family="Times,serif" font-size="14.00">show</text>
<text text-anchor="start" x="-63.5933" y="-207.8" font-family="Times,serif" font-size="14.00">update</text>
<polyline fill="none" stroke="black" points="-71.5933,-201 55.5933,-201 "/>
<polyline fill="none" stroke="black" points="-71.5933,-177 55.5933,-177 "/>
<text text-anchor="start" x="-63.5933" y="-161.8" font-family="Times,serif" font-size="14.00">_layout</text>
<text text-anchor="start" x="-63.5933" y="-147.8" font-family="Times,serif" font-size="14.00">exercise_params</text>
<text text-anchor="start" x="-63.5933" y="-133.8" font-family="Times,serif" font-size="14.00">set_exercise</text>
</g>
<!-- IntensitiesController -->
<g id="node5" class="node"><title>IntensitiesController</title>
<path fill="none" stroke="black" d="M-59.5449,107C-59.5449,107 47.5449,107 47.5449,107 53.5449,107 59.5449,101 59.5449,95 59.5449,95 59.5449,-83 59.5449,-83 59.5449,-89 53.5449,-95 47.5449,-95 47.5449,-95 -59.5449,-95 -59.5449,-95 -65.5449,-95 -71.5449,-89 -71.5449,-83 -71.5449,-83 -71.5449,95 -71.5449,95 -71.5449,101 -65.5449,107 -59.5449,107"/>
<text text-anchor="middle" x="-6" y="-79.8" font-family="Times,serif" font-size="14.00">IntensitiesController</text>
<polyline fill="none" stroke="black" points="-71.5449,-73 59.5449,-73 "/>
<text text-anchor="start" x="-63.5449" y="-57.8" font-family="Times,serif" font-size="14.00">create</text>
<text text-anchor="start" x="-63.5449" y="-43.8" font-family="Times,serif" font-size="14.00">destroy</text>
<text text-anchor="start" x="-63.5449" y="-29.8" font-family="Times,serif" font-size="14.00">edit</text>
<text text-anchor="start" x="-63.5449" y="-15.8" font-family="Times,serif" font-size="14.00">index</text>
<text text-anchor="start" x="-63.5449" y="-1.8" font-family="Times,serif" font-size="14.00">new</text>
<text text-anchor="start" x="-63.5449" y="12.2" font-family="Times,serif" font-size="14.00">show</text>
<text text-anchor="start" x="-63.5449" y="26.2" font-family="Times,serif" font-size="14.00">update</text>
<polyline fill="none" stroke="black" points="-71.5449,33 59.5449,33 "/>
<polyline fill="none" stroke="black" points="-71.5449,57 59.5449,57 "/>
<text text-anchor="start" x="-63.5449" y="72.2" font-family="Times,serif" font-size="14.00">_layout</text>
<text text-anchor="start" x="-63.5449" y="86.2" font-family="Times,serif" font-size="14.00">intensity_params</text>
<text text-anchor="start" x="-63.5449" y="100.2" font-family="Times,serif" font-size="14.00">set_intensity</text>
</g>
<!-- ShoesController -->
<g id="node6" class="node"><title>ShoesController</title>
<path fill="none" stroke="black" d="M155.503,-145C155.503,-145 238.497,-145 238.497,-145 244.497,-145 250.497,-151 250.497,-157 250.497,-157 250.497,-335 250.497,-335 250.497,-341 244.497,-347 238.497,-347 238.497,-347 155.503,-347 155.503,-347 149.503,-347 143.503,-341 143.503,-335 143.503,-335 143.503,-157 143.503,-157 143.503,-151 149.503,-145 155.503,-145"/>
<text text-anchor="middle" x="197" y="-331.8" font-family="Times,serif" font-size="14.00">ShoesController</text>
<polyline fill="none" stroke="black" points="143.503,-325 250.497,-325 "/>
<text text-anchor="start" x="151.503" y="-309.8" font-family="Times,serif" font-size="14.00">create</text>
<text text-anchor="start" x="151.503" y="-295.8" font-family="Times,serif" font-size="14.00">destroy</text>
<text text-anchor="start" x="151.503" y="-281.8" font-family="Times,serif" font-size="14.00">edit</text>
<text text-anchor="start" x="151.503" y="-267.8" font-family="Times,serif" font-size="14.00">index</text>
<text text-anchor="start" x="151.503" y="-253.8" font-family="Times,serif" font-size="14.00">new</text>
<text text-anchor="start" x="151.503" y="-239.8" font-family="Times,serif" font-size="14.00">show</text>
<text text-anchor="start" x="151.503" y="-225.8" font-family="Times,serif" font-size="14.00">update</text>
<polyline fill="none" stroke="black" points="143.503,-219 250.497,-219 "/>
<polyline fill="none" stroke="black" points="143.503,-195 250.497,-195 "/>
<text text-anchor="start" x="151.503" y="-179.8" font-family="Times,serif" font-size="14.00">_layout</text>
<text text-anchor="start" x="151.503" y="-165.8" font-family="Times,serif" font-size="14.00">set_shoe</text>
<text text-anchor="start" x="151.503" y="-151.8" font-family="Times,serif" font-size="14.00">shoe_params</text>
</g>
</g>
</svg>
