<?xml version="1.0" encoding="UTF-8" standalone="no"?>
<!DOCTYPE svg PUBLIC "-//W3C//DTD SVG 1.1//EN"
 "http://www.w3.org/Graphics/SVG/1.1/DTD/svg11.dtd">
<!-- Generated by graphviz version 2.38.0 (20140413.2041)
 -->
<!-- Title: models_diagram Pages: 1 -->
<svg width="819pt" height="165pt"
 viewBox="0.00 0.00 819.19 165.00" xmlns="http://www.w3.org/2000/svg" xmlns:xlink="http://www.w3.org/1999/xlink">
<g id="graph0" class="graph" transform="scale(1 1) rotate(0) translate(4 161)">
<title>models_diagram</title>
<polygon fill="none" stroke="none" points="-4,4 -4,-161 815.193,-161 815.193,4 -4,4"/>
<!-- _diagram_info -->
<g id="node1" class="node"><title>_diagram_info</title>
<text text-anchor="start" x="8" y="-100.6" font-family="Times,serif" font-size="13.00">Models diagram</text>
<text text-anchor="start" x="8" y="-87.6" font-family="Times,serif" font-size="13.00">Date: Oct 03 2016 &#45; 16:02</text>
<text text-anchor="start" x="8" y="-74.6" font-family="Times,serif" font-size="13.00">Migration version: 20161003195307</text>
<text text-anchor="start" x="8" y="-61.6" font-family="Times,serif" font-size="13.00">Generated by RailRoady 1.4.2</text>
<text text-anchor="start" x="8" y="-48.6" font-family="Times,serif" font-size="13.00">http://railroady.prestonlee.com</text>
</g>
<!-- Activity -->
<g id="node2" class="node"><title>Activity</title>
<path fill="none" stroke="black" d="M237.182,-0.5C237.182,-0.5 346.193,-0.5 346.193,-0.5 352.193,-0.5 358.193,-6.5 358.193,-12.5 358.193,-12.5 358.193,-144.5 358.193,-144.5 358.193,-150.5 352.193,-156.5 346.193,-156.5 346.193,-156.5 237.182,-156.5 237.182,-156.5 231.182,-156.5 225.182,-150.5 225.182,-144.5 225.182,-144.5 225.182,-12.5 225.182,-12.5 225.182,-6.5 231.182,-0.5 237.182,-0.5"/>
<text text-anchor="middle" x="291.688" y="-141.3" font-family="Times,serif" font-size="14.00">Activity</text>
<polyline fill="none" stroke="black" points="225.182,-134.5 358.193,-134.5 "/>
<text text-anchor="start" x="233.182" y="-119.3" font-family="Times,serif" font-size="14.00">id :INTEGER</text>
<text text-anchor="start" x="233.182" y="-105.3" font-family="Times,serif" font-size="14.00">exercise_id :integer</text>
<text text-anchor="start" x="233.182" y="-91.3" font-family="Times,serif" font-size="14.00">intensity_id :integer</text>
<text text-anchor="start" x="233.182" y="-77.3" font-family="Times,serif" font-size="14.00">duration :integer</text>
<text text-anchor="start" x="233.182" y="-63.3" font-family="Times,serif" font-size="14.00">distance :integer</text>
<text text-anchor="start" x="233.182" y="-49.3" font-family="Times,serif" font-size="14.00">date :datetime</text>
<text text-anchor="start" x="233.182" y="-35.3" font-family="Times,serif" font-size="14.00">description :text</text>
<text text-anchor="start" x="233.182" y="-21.3" font-family="Times,serif" font-size="14.00">created_at :datetime</text>
<text text-anchor="start" x="233.182" y="-7.3" font-family="Times,serif" font-size="14.00">updated_at :datetime</text>
</g>
<!-- Exercise -->
<g id="node3" class="node"><title>Exercise</title>
<path fill="none" stroke="black" d="M388.182,-28.5C388.182,-28.5 497.193,-28.5 497.193,-28.5 503.193,-28.5 509.193,-34.5 509.193,-40.5 509.193,-40.5 509.193,-116.5 509.193,-116.5 509.193,-122.5 503.193,-128.5 497.193,-128.5 497.193,-128.5 388.182,-128.5 388.182,-128.5 382.182,-128.5 376.182,-122.5 376.182,-116.5 376.182,-116.5 376.182,-40.5 376.182,-40.5 376.182,-34.5 382.182,-28.5 388.182,-28.5"/>
<text text-anchor="middle" x="442.688" y="-113.3" font-family="Times,serif" font-size="14.00">Exercise</text>
<polyline fill="none" stroke="black" points="376.182,-106.5 509.193,-106.5 "/>
<text text-anchor="start" x="384.182" y="-91.3" font-family="Times,serif" font-size="14.00">id :INTEGER</text>
<text text-anchor="start" x="384.182" y="-77.3" font-family="Times,serif" font-size="14.00">exercise :varchar</text>
<text text-anchor="start" x="384.182" y="-63.3" font-family="Times,serif" font-size="14.00">description :text</text>
<text text-anchor="start" x="384.182" y="-49.3" font-family="Times,serif" font-size="14.00">created_at :datetime</text>
<text text-anchor="start" x="384.182" y="-35.3" font-family="Times,serif" font-size="14.00">updated_at :datetime</text>
</g>
<!-- Intensity -->
<g id="node4" class="node"><title>Intensity</title>
<path fill="none" stroke="black" d="M539.182,-28.5C539.182,-28.5 648.193,-28.5 648.193,-28.5 654.193,-28.5 660.193,-34.5 660.193,-40.5 660.193,-40.5 660.193,-116.5 660.193,-116.5 660.193,-122.5 654.193,-128.5 648.193,-128.5 648.193,-128.5 539.182,-128.5 539.182,-128.5 533.182,-128.5 527.182,-122.5 527.182,-116.5 527.182,-116.5 527.182,-40.5 527.182,-40.5 527.182,-34.5 533.182,-28.5 539.182,-28.5"/>
<text text-anchor="middle" x="593.688" y="-113.3" font-family="Times,serif" font-size="14.00">Intensity</text>
<polyline fill="none" stroke="black" points="527.182,-106.5 660.193,-106.5 "/>
<text text-anchor="start" x="535.182" y="-91.3" font-family="Times,serif" font-size="14.00">id :INTEGER</text>
<text text-anchor="start" x="535.182" y="-77.3" font-family="Times,serif" font-size="14.00">intensity :varchar</text>
<text text-anchor="start" x="535.182" y="-63.3" font-family="Times,serif" font-size="14.00">description :text</text>
<text text-anchor="start" x="535.182" y="-49.3" font-family="Times,serif" font-size="14.00">created_at :datetime</text>
<text text-anchor="start" x="535.182" y="-35.3" font-family="Times,serif" font-size="14.00">updated_at :datetime</text>
</g>
<!-- Shoe -->
<g id="node5" class="node"><title>Shoe</title>
<path fill="none" stroke="black" d="M690.182,-21.5C690.182,-21.5 799.193,-21.5 799.193,-21.5 805.193,-21.5 811.193,-27.5 811.193,-33.5 811.193,-33.5 811.193,-123.5 811.193,-123.5 811.193,-129.5 805.193,-135.5 799.193,-135.5 799.193,-135.5 690.182,-135.5 690.182,-135.5 684.182,-135.5 678.182,-129.5 678.182,-123.5 678.182,-123.5 678.182,-33.5 678.182,-33.5 678.182,-27.5 684.182,-21.5 690.182,-21.5"/>
<text text-anchor="middle" x="744.688" y="-120.3" font-family="Times,serif" font-size="14.00">Shoe</text>
<polyline fill="none" stroke="black" points="678.182,-113.5 811.193,-113.5 "/>
<text text-anchor="start" x="686.182" y="-98.3" font-family="Times,serif" font-size="14.00">id :INTEGER</text>
<text text-anchor="start" x="686.182" y="-84.3" font-family="Times,serif" font-size="14.00">shoe :varchar</text>
<text text-anchor="start" x="686.182" y="-70.3" font-family="Times,serif" font-size="14.00">brand :varchar</text>
<text text-anchor="start" x="686.182" y="-56.3" font-family="Times,serif" font-size="14.00">bought :date</text>
<text text-anchor="start" x="686.182" y="-42.3" font-family="Times,serif" font-size="14.00">created_at :datetime</text>
<text text-anchor="start" x="686.182" y="-28.3" font-family="Times,serif" font-size="14.00">updated_at :datetime</text>
</g>
</g>
</svg>
